<svg class="svg-icon" style="width: 1em;height: 1em;vertical-align: middle;fill: currentColor;overflow: hidden;" viewBox="0 0 1024 1024" version="1.1" xmlns="http://www.w3.org/2000/svg"><path d="M876.276 588.34l-230.644 399.164-76.084-43.896 230.672-399.216c11.86-20.528 38.112-27.56 58.648-15.716l1.684 0.972c20.556 11.86 27.596 38.144 15.724 58.692z" fill="#E0EBFC" /><path d="M645.624 995.504c-1.356 0-2.732-0.344-3.988-1.072l-76.084-43.896a7.988 7.988 0 0 1-2.932-10.932l230.672-399.216c14.044-24.308 45.26-32.668 69.576-18.64l1.688 0.976a50.604 50.604 0 0 1 23.748 30.94 50.6 50.6 0 0 1-5.096 38.672l-230.644 399.168a8 8 0 0 1-6.94 4z m-65.144-54.828l62.228 35.904 226.644-392.244c4.672-8.088 5.916-17.508 3.496-26.528s-8.204-16.56-16.292-21.228l-1.688-0.976c-16.672-9.62-38.084-3.884-47.724 12.792l-226.664 392.28z m295.796-352.34h0.04-0.04z" fill="#3762CC" /><path d="M627.684 665.464H716c39.02 0 70.652 33.9 70.652 75.72v72.784a101.24 101.24 0 0 1-2.98 24.388l-34.736 139.604c-2.06 8.288-9.064 14.052-17.068 14.052h-104.184v-326.548zM300.92 665.464H212.608c-39.02 0-70.652 33.9-70.652 75.72v72.784c0 8.232 1.004 16.432 2.98 24.388l34.736 139.604c2.06 8.288 9.064 14.052 17.068 14.052H300.92v-326.548z" fill="#A4C9FF" /><path d="M731.868 1000.008h-104.18a8 8 0 0 1-8-8v-326.548a8 8 0 0 1 8-8H716c43.368 0 78.652 37.556 78.652 83.72v72.784c0 8.872-1.084 17.724-3.216 26.316l-34.744 139.604c-2.94 11.852-13.148 20.124-24.824 20.124z m-96.18-16h96.18c4.308 0 8.136-3.28 9.3-7.98l34.744-139.604c1.82-7.328 2.744-14.884 2.744-22.456v-72.784c0-37.34-28.104-67.72-62.652-67.72h-80.312v310.544zM300.92 1000.008H196.74c-11.672 0-21.884-8.272-24.828-20.12l-34.736-139.6a108.96 108.96 0 0 1-3.224-26.32v-72.784c0-46.164 35.284-83.72 78.652-83.72H300.92a8 8 0 0 1 8 8v326.548a8 8 0 0 1-8 7.996z m-88.316-326.544c-34.548 0-62.652 30.38-62.652 67.72v72.784c0 7.576 0.924 15.132 2.748 22.456l34.736 139.6c1.172 4.7 4.996 7.984 9.304 7.984H292.92v-310.548H212.604z" fill="#3762CC" /><path d="M658.156 360.98H279.284l-45.34 299.572a717.64 717.64 0 0 0-8.088 107.444v153.408c0 38.992 33.456 70.604 74.728 70.604h336.276c41.272 0 74.728-31.612 74.728-70.604v-153.408c0-35.952-2.704-71.856-8.088-107.444l-45.344-299.572z" fill="#A4C9FF" /><path d="M636.856 1000.008H300.584c-45.616 0-82.728-35.26-82.728-78.604V768c0-36.228 2.752-72.78 8.18-108.644l45.34-299.576a8 8 0 0 1 7.912-6.804h378.872c3.956 0 7.316 2.892 7.912 6.804l45.34 299.576A728.868 728.868 0 0 1 719.592 768v153.408c-0.008 43.34-37.12 78.6-82.736 78.6zM286.164 368.98l-44.308 292.772c-5.308 35.072-8 70.82-8 106.248v153.408c0 34.52 29.932 62.604 66.728 62.604h336.272c36.796 0 66.732-28.084 66.732-62.604V768c0-35.428-2.692-71.176-8-106.248L651.28 368.98H286.164z" fill="#3762CC" /><path d="M723.484 283.228l39.056-22.536c24.464-14.116 32.848-45.396 18.716-69.852l-71.1-123.072c-19.764-34.212-63.516-45.936-97.736-26.188l-83.36 48.096 96.692 167.36c19.76 34.212 63.508 45.936 97.732 26.192zM213.956 283.228l-39.056-22.536c-24.464-14.116-32.848-45.396-18.716-69.852l71.1-123.072C247.048 33.556 290.8 21.836 325.02 41.58l83.36 48.096-96.692 167.36c-19.76 34.212-63.512 45.936-97.732 26.192z" fill="#4671C6" /><path d="M687.856 300.788c-27.516 0-54.312-14.26-69.036-39.748l-96.692-167.36a7.988 7.988 0 0 1 2.932-10.932l83.364-48.096c37.968-21.912 86.724-8.856 108.66 29.116l71.1 123.072c7.904 13.68 10.004 29.616 5.916 44.876s-13.876 28.012-27.564 35.908l-39.052 22.536a79.144 79.144 0 0 1-39.628 10.628z m-147.872-208.18l92.688 160.428c17.528 30.34 56.48 40.768 86.812 23.26l39.056-22.536a42.832 42.832 0 0 0 20.104-26.188 42.868 42.868 0 0 0-4.312-32.732l-71.1-123.072c-17.528-30.336-56.48-40.764-86.812-23.26l-76.436 44.1z m183.5 190.62h0.04-0.04zM249.584 300.788c-13.484 0-27.136-3.424-39.628-10.632l-39.056-22.536c-13.684-7.896-23.468-20.648-27.56-35.908s-1.988-31.196 5.916-44.876l71.1-123.072C242.292 25.796 291.04 12.74 329.02 34.652l83.36 48.096a7.988 7.988 0 0 1 2.932 10.932L318.616 261.04c-14.72 25.48-41.52 39.748-69.032 39.748z m-31.632-24.492c30.348 17.512 69.284 7.076 86.812-23.26l92.688-160.428-76.428-44.1c-30.352-17.508-69.284-7.076-86.816 23.26L163.104 194.84a42.864 42.864 0 0 0-4.312 32.732 42.828 42.828 0 0 0 20.1 26.188l39.06 22.536z" fill="#3762CC" /><path d="M488.644 552.936h-44.268c-92.64 0-167.744-75.1-167.744-167.744V199.964c0-82.888 67.196-150.084 150.084-150.084h79.584c82.888 0 150.084 67.196 150.084 150.084v185.232c0.004 92.64-75.096 167.74-167.74 167.74z" fill="#A4C9FF" /><path d="M488.644 560.936h-44.268c-96.908 0-175.744-78.836-175.744-175.744V199.964c0-87.168 70.916-158.084 158.084-158.084h79.584c87.168 0 158.084 70.916 158.084 158.084v185.232c0.004 96.9-78.832 175.74-175.74 175.74zM426.72 57.876c-78.348 0-142.084 63.74-142.084 142.084v185.232c0 88.084 71.66 159.744 159.744 159.744h44.268c88.084 0 159.744-71.66 159.744-159.744V199.964c0-78.344-63.74-142.084-142.084-142.084H426.72z" fill="#3762CC" /><path d="M230.268 440.62V396.072c0-60.812 49.3-110.112 110.112-110.112h256.676c60.812 0 110.112 49.3 110.112 110.112v44.544c0 60.812-49.3 110.112-110.112 110.112H340.38c-60.812 0-110.112-49.296-110.112-110.108z" fill="#A4C9FF" /><path d="M597.06 558.732H340.384c-65.128 0-118.112-52.988-118.112-118.112V396.076c0-65.128 52.984-118.112 118.112-118.112h256.676c65.124 0 118.108 52.988 118.108 118.112v44.544c0 65.124-52.984 118.112-118.108 118.112zM340.384 293.96c-56.304 0-102.112 45.808-102.112 102.112v44.544c0 56.304 45.808 102.112 102.112 102.112h256.676c56.304 0 102.108-45.808 102.108-102.112V396.076c0-56.304-45.804-102.112-102.108-102.112H340.384z" fill="#3762CC" /><path d="M360.548 281.548h-0.028a22.068 22.068 0 0 1-22.064-22.064v-26.476a22.068 22.068 0 0 1 22.064-22.064h0.028a22.068 22.068 0 0 1 22.064 22.064v26.476a22.064 22.064 0 0 1-22.064 22.064zM581.336 281.548h-0.028a22.068 22.068 0 0 1-22.064-22.064v-26.476a22.068 22.068 0 0 1 22.064-22.064h0.028a22.068 22.068 0 0 1 22.064 22.064v26.476a22.064 22.064 0 0 1-22.064 22.064z" fill="#3762CC" /><path d="M529.636 563.144h55.796c25.772 0 46.668-20.892 46.668-46.668v-108.64c0-36.084-29.252-65.332-65.332-65.332h-102.464v155.304c0 36.084 29.252 65.336 65.332 65.336zM398.968 563.144H343.172c-25.772 0-46.668-20.892-46.668-46.668v-108.64c0-36.084 29.252-65.332 65.332-65.332h102.464v155.304c0.004 36.084-29.248 65.336-65.332 65.336z" fill="#E0EBFC" /><path d="M398.968 571.144H343.172c-30.144 0-54.668-24.524-54.668-54.668v-108.64c0-40.436 32.9-73.332 73.336-73.332h102.464a8 8 0 0 1 8 8v155.308c0 40.432-32.896 73.332-73.336 73.332zM361.84 350.5c-31.612 0-57.336 25.72-57.336 57.332v108.64c0 21.324 17.348 38.668 38.668 38.668h55.796c31.612 0 57.336-25.72 57.336-57.332V350.5H361.84z" fill="#3762CC" /><path d="M585.432 571.144h-55.796c-40.432 0-73.332-32.9-73.332-73.332V342.5a8 8 0 0 1 8-8h102.46c40.436 0 73.336 32.9 73.336 73.332v108.64c0 30.148-24.52 54.672-54.668 54.672z m-113.128-220.644v147.308c0 31.612 25.72 57.332 57.332 57.332h55.796c21.32 0 38.668-17.344 38.668-38.668v-108.64c0-31.612-25.724-57.332-57.336-57.332h-94.46zM600.048 1000.008l-106.616-0.592c-13.16-0.072-23.868-10.84-23.868-24V756a4.004 4.004 0 0 0-8 0v219.564c0 13.176-10.72 23.94-23.896 24l-100.24 0.444a25.632 25.632 0 0 1-25.3-21.192l-20.56-116.428a229.48 229.48 0 0 1-3.48-39.74v-166a8 8 0 0 1 16 0v166c0 12.348 1.088 24.784 3.24 36.956l20.56 116.424a9.644 9.644 0 0 0 9.508 7.976l100.204-0.444a8.016 8.016 0 0 0 7.964-8V756c0-11.028 8.972-20 20-20s20 8.972 20 20v219.416c0 4.388 3.572 7.976 7.952 8l106.576 0.592a9.624 9.624 0 0 0 9.46-7.976l20.56-116.428c2.148-12.152 3.24-24.584 3.24-36.956v-166a8 8 0 0 1 16 0v166c0 13.304-1.172 26.672-3.48 39.74l-20.56 116.424a25.624 25.624 0 0 1-25.264 21.196z" fill="#3762CC" /><path d="M508.46 342.504h-88.312a8.832 8.832 0 0 0-8.832 8.824v17.652a22.072 22.072 0 0 0 22.08 22.064h61.824c12.192 0 22.08-9.88 22.08-22.064v-17.652a8.84 8.84 0 0 0-8.84-8.824z" fill="#F9A7A7" /><path d="M495.216 399.044h-61.82c-16.584 0-30.08-13.488-30.08-30.064v-17.652a16.852 16.852 0 0 1 16.828-16.828h88.316a16.848 16.848 0 0 1 16.832 16.828v17.652c0 16.576-13.492 30.064-30.076 30.064z m-75.072-48.544a0.828 0.828 0 0 0-0.828 0.828v17.652a14.088 14.088 0 0 0 14.08 14.064h61.82c7.76 0 14.08-6.308 14.08-14.064v-17.652a0.832 0.832 0 0 0-0.832-0.828h-88.32z" fill="#3762CC" /></svg>